<svg viewBox="0 0 1106 560" fill="none" xmlns="http://www.w3.org/2000/svg">
<path d="M1102.12 361.633L743.687 3.20029C739.419 -1.06676 731.292 -1.06676 727.025 3.20029L551.06 178.556L378.549 6.04501C373.875 1.37157 366.56 1.37157 361.887 6.04501L66.8505 295.392L3.2511 357.366C0.812784 359.804 0 362.649 0 365.9C0 369.151 1.42236 371.996 3.2511 374.434L182.061 553.244C186.734 557.917 194.456 557.917 198.723 553.244L370.421 381.749L544.354 555.682C549.028 560.356 556.749 560.356 561.016 555.682L733.12 383.578L906.241 556.698C908.679 559.136 911.524 559.949 914.775 559.949C918.026 559.949 920.871 558.933 923.309 556.698L1102.12 377.888C1104.56 375.45 1105.37 372.605 1105.37 369.354C1105.37 365.9 1104.35 363.462 1102.12 361.633ZM1070.01 376.466L967.199 338.672L920.058 237.075L947.286 240.936L1076.52 370.167L1070.01 376.466ZM1011.9 434.579L981.422 369.354L1051.52 395.16L1011.9 434.579ZM304.18 199.485L159.303 238.498L304.18 96.0595V199.485ZM124.354 272.431L225.951 245.203L219.245 359.601L95.7039 300.878L124.354 272.431ZM250.334 238.701L268.418 234.028L316.575 307.99L241.19 391.502L250.334 238.701ZM332.627 289.093L292.192 227.119L315.152 221.023L372.859 244.797L332.627 289.093ZM327.954 200.501V157.221L465.312 168.599L499.652 271.618L327.954 200.501ZM444.18 334.405L493.353 364.477L501.48 479.282L431.988 410.196L444.18 334.405ZM511.031 347.409L448.65 308.803L453.324 278.73L512.046 303.113C513.469 304.129 514.891 304.942 516.72 304.942L575.849 329.732L600.639 403.084L511.031 347.409ZM600.029 326.277L664.441 292.954L617.3 376.872L600.029 326.277ZM629.695 284.826L643.919 183.839L726.822 234.434L629.695 284.826ZM751.611 221.43L640.464 153.766L620.958 141.778L650.218 112.721L776.604 153.766L788.592 202.329L751.611 221.43ZM812.163 198.062L782.7 75.537L920.058 212.895L812.163 198.062ZM813.179 222.039L838.375 225.29L865.602 481.72L793.062 409.18L813.179 222.039ZM862.351 229.151L892.424 233.418L935.298 325.871L882.874 423.2L862.351 229.151ZM734.949 28.3962L749.782 43.2293L769.898 126.742L669.318 94.2308L734.949 28.3962ZM559.187 204.361L604.093 159.456L621.771 170.428L603.687 298.237L585.196 307.787L528.099 284.419L481.364 143.81L542.322 204.768C547.199 208.628 554.311 208.628 559.187 204.361ZM369.811 31.8505L443.774 105.61L456.575 144.216L327.954 133.244V72.6923L369.811 31.8505ZM77.2134 318.759L217.417 385L213.556 447.99L88.1858 426.045L28.6502 366.509L77.2134 318.759ZM190.189 528.454L117.242 455.508L211.524 472.17L209.086 508.948L190.189 528.454ZM361.684 356.756L234.891 483.549L238.142 429.296L238.549 428.89L395.82 254.956L430.566 269.18L411.06 389.267L378.549 356.756C374.078 352.083 366.56 352.083 361.684 356.756ZM552.888 530.893L527.083 505.087L518.549 379.717L612.83 437.83L621.364 462.62L552.888 530.893ZM733.527 355.334C730.682 355.334 727.431 356.35 724.993 358.585L639.652 443.926L627.257 407.148L703.048 272.634L788.389 228.745L771.321 387.438L742.264 358.382C739.826 356.35 736.372 355.334 733.527 355.334ZM914.775 531.705L891.814 508.745L887.141 464.855L947.692 352.286L994.02 452.46L914.775 531.705Z" fill="white"/>
</svg>
